<svg xmlns="http://www.w3.org/2000/svg" viewBox="0 0 199 66"><path fill="#7C7678" d="M23-23v22H1v-22h22m1-1H0V0h24v-24z"/><g fill="#231F20"><path d="M12 0C5.4 0 0 5.4 0 12s5.4 12 12 12 12-5.4 12-12S18.6 0 12 0zm0 23c-2.8 0-5.4-1.1-7.3-2.8.2-.1.3-.3.3-.4v-.1h.2c.2 0 .3 0 .4-.1.1-.1.2-.3.1-.6-.1-.5 0-.5.1-.6.2-.3.2-.5.1-.8-.1-.4-.5-.8-1.2-.9-.4 0-.7-.4-1-1v-.1c-.2-.4-.3-.5-.6-.5H3s-.1 0-.3-.3c-.2-.4-.4-.6-.7-.6h-.2c0-.1-.1-.2-.2-.2-.1-.1-.4-.3-.5-1.8V12H.8v-.1-.6c0 .1.1.1.1.2.3.3.3.5.5.5h.1l.1-.1c.1-.1.1-.1.1-.9 0-.3.1-.4.2-.6 0-.2.1-.4.2-.6 0-.4.5-1 .6-1.1h.2l-.2.2.4-.4.3-.3v-.1l.1-.3c.2.1.5.2.7 0 .1-.1.1-.2.1-.4 0-.1 0-.2-.1-.3 0-.3-.1-.5-.3-.7 0 0-.1-.1-.1-.2 0-.2-.1-.5-.3-.5.2-.1.3-.2.4-.3.2-.3.3-.6.2-.9v-.1l.6-.6c-.2.3-.2.7.1.9.1.1.3.2.5.2.4 0 .9-.3.9-.8 0-.3.5-.5.8-.7.1-.1.3-.2.4-.2l.2-.2s.1 0 .1-.1c-.1.1-.1.1-.1.2 0 .3.4.3.6.3.4 0 .9-.3.9-.6 0-.1-.1-.2-.1-.2-.1-.1-.4-.1-.7 0-.3.1-.4.1-.5.2.3-.2.7-.5.8-.6.1 0 .1-.1.1-.2s-.1-.3-.2-.4C9.6 1.2 10.8 1 12 1c2.4 0 4.7.8 6.5 2.2-.8-.1-1.5-.3-1.7-.5-.3-.3-1.8-.8-2.6-.8-.2 0-.4 0-.5.1-.1 0-.3.1-.4.1-.7.2-1.8.5-1.7 1.5.1.2.3.4.5.4.1 0 .3-.1.4-.1.1 0 .2-.1.2-.1v.1c.1.3.2.5.3.5-.6 0-1 .2-1.6.5 0 0-.1 0-.1.1 0-.2-.2-.3-.3-.5-.2-.1-.2-.3-.3-.4-.1-.2-.2-.5-.7-.3 0-.1-.2 0-.2.2v.2h-.1c-.1 0-.2 0-.2.1-.2.1-.5.6-.4.9 0 .1.1.2.3.2.1 0 .2 0 .3-.1.1 0 .1-.1.1-.1v.2c.1.1.2.2.3.2h.1c-.1 0-.2.1-.2.3 0 .2.2.3.4.4.1 0 .1.1.1.1v.1h-.8-.1c-.2-.1-.3.2-.4.5-.1.4 0 .7.2 1l.1.1c-.1.2-.1.2-.2.3-.2.3-.4.8-1.1 1.3-.4.3-.6.8-.6 1.4-.1 1 .4 2.2.8 2.7.5.6 1.4.7 2.7.2.3-.1.5 0 .6.1.1.1.3.2.5.1.1 0 .2 0 .2.1v.2c-.2.5 0 .8.1 1l.1.1c0 .1.1.1.2.2.2.2.6.8.4 1-.5.7-.5 1.2-.2 1.6.2.2.3.4.3.7.1.2.1.4.2.6.1.1.1.2.1.3.1.2.1.4.5.4h.6c1-.1 2.2-1.4 2.2-2 0-.4.2-.5.4-.6.2-.1.4-.2.5-.4.1-.3.1-.6 0-1-.1-.3-.1-.5-.1-.7.1-.3.5-.7.8-1 .4-.4.7-.7.9-1.1s.2-.6 0-.7c-.1-.1-.2-.2-.3-.2-.1 0-.3 0-.4.1-.1 0-.2 0-.3.1-.3-.1-1.4-1.8-1.5-2.8.3.4 1 1.5 1.1 2 0 .2.1.7.7.7.3 0 .6-.1 1-.5.7-.6 1-1.1.9-1.4 0-.1 0-.1-.1-.2.3 0 .6 0 .9.5.2.3.3.9.4 1.3.1.6.2.8.4.8s.3-.2.4-1.1v-.3c0 .1.1.3.1.5l.2.8C22.4 18.6 17.7 23 12 23zm2.3-14.1c0 .1 0 .1 0 0-.1.1-.4 0-.6-.1-.2-.1-.4-.2-.6-.2-.2-.1-.2-.1-.2-.4v-.3c0-.1-.1-.2-.8-.2-.3 0-.9 0-1.2.2 0-.1.1-.2.1-.2.2-.7.4-.7.6-.7h.2c.1 0 .2 0 .4-.1.1 0 .1-.1.2-.1s.1-.1.1-.1c.1 0 .5.4.7.5.5.5.9.5 1 .2 0-.1 0-.3-.1-.4-.1 0 0 0 0 0 .2.9.5 1.1.7 1.1.2 0 .3-.1.4-.4 0-.2.1-.3.1-.3.1.1.2.3.2.5.1.4.6.4.9.4H17c0 .2 0 .4-.1.6-.3.1-.5.1-.7.1-.2 0-.4 0-.5-.1-.1 0-.1-.1-.2-.1-.4-.2-.7-.4-.9-.4-.1 0-.2.1-.3.1-.1.1-.1.2 0 .4zm-.1-5.4c.1.2.4.2.7.3-.6.7-1 .8-1.6.7.1 0 .2-.1.3-.2.2-.2.3-.5.3-.9 0-.1.1-.3.1-.3.1-.1.2-.2.3-.2 0 0 0 .1-.1.2v.4z"/><path d="M19.1 16.5H19c-.1 0-.2.1-.3.2l-.3.3c-.3.3-.6.5-.5.8 0 0 0 .2-.1.3-.1.2-.1.4 0 .6 0 .1.1.1.3.1h.1c.5 0 .7-.7.7-1.1 0-.1 0-.2.1-.3v-.1c.3-.4.3-.6.1-.8zm-.9 2.1z"/></g><path fill="#2AA9E0" d="M124 4.6c-.9.4-1.8.7-2.8.8 1-.6 1.8-1.6 2.2-2.7-.9.6-2 1-3.1 1.2-.9-1-2.2-1.6-3.6-1.6-2.7 0-4.9 2.2-4.9 4.9 0 .4 0 .8.1 1.1-4.1-.2-7.7-2.2-10.1-5.1-.4.7-.7 1.6-.7 2.5 0 1.7.9 3.2 2.2 4.1-.8 0-1.6-.2-2.2-.6v.1c0 2.4 1.7 4.4 3.9 4.8-.4.1-.8.2-1.3.2-.3 0-.6 0-.9-.1.6 2 2.4 3.4 4.6 3.4-1.7 1.3-3.8 2.1-6.1 2.1-.4 0-.8 0-1.2-.1 2.2 1.4 4.8 2.2 7.5 2.2 9 0 14-7.5 14-14v-.6c.9-.8 1.7-1.6 2.4-2.6z"/><path fill="#3B5999" d="M147.7 0h-21.4c-.7 0-1.3.6-1.3 1.3v21.4c0 .7.6 1.3 1.3 1.3h11.5v-9.3h-3.1v-3.6h3.1V8.4c0-3.1 1.9-4.8 4.7-4.8 1.3 0 2.5.1 2.8.1V7h-1.9c-1.5 0-1.8.7-1.8 1.8v2.3h3.6l-.5 3.6h-3.1V24h6.1c.7 0 1.3-.6 1.3-1.3V1.3c0-.7-.6-1.3-1.3-1.3z"/><path fill="#181616" fill-rule="evenodd" d="M37 0c-6.6 0-12 5.4-12 12 0 5.3 3.4 9.8 8.2 11.4.6.1.8-.3.8-.6v-2c-3.3.7-4-1.6-4-1.6-.5-1.4-1.3-1.8-1.3-1.8-1.1-.7.1-.7.1-.7 1.2.1 1.8 1.2 1.8 1.2 1.1 1.8 2.8 1.3 3.5 1 .1-.8.4-1.3.8-1.6-2.7-.3-5.5-1.3-5.5-5.9 0-1.3.5-2.4 1.2-3.2-.2-.3-.6-1.6.1-3.2 0 0 1-.3 3.3 1.2 1-.3 2-.4 3-.4s2 .1 3 .4C42.3 4.7 43.3 5 43.3 5c.7 1.7.2 2.9.1 3.2.8.8 1.2 1.9 1.2 3.2 0 4.6-2.8 5.6-5.5 5.9.4.4.8 1.1.8 2.2v3.3c0 .3.2.7.8.6C45.6 21.8 49 17.3 49 12c0-6.6-5.4-12-12-12z" clip-rule="evenodd"/><path fill="#FFF" d="M184.5 15.1l6.5-3.4-6.5-3.4v6.8z"/><path fill="#420000" fill-rule="evenodd" d="M184.5 8.4l5.7 3.8.8-.4-6.5-3.4z" opacity=".12" clip-rule="evenodd"/><linearGradient id="a" x1="187" x2="187" y1="3.57" y2="20.43" gradientUnits="userSpaceOnUse"><stop offset="0" stop-color="#E52D27"/><stop offset="1" stop-color="#BF171D"/></linearGradient><path fill="url(#a)" d="M198.7 7.2s-.2-1.7-1-2.4c-.9-1-1.9-1-2.4-1-3.3-.2-8.3-.2-8.3-.2s-5 0-8.4.2c-.5.1-1.5.1-2.4 1-.7.7-1 2.4-1 2.4s-.2 1.9-.2 3.9v1.8c0 1.9.2 3.9.2 3.9s.2 1.7 1 2.4c.9 1 2.1.9 2.6 1 1.9.2 8.1.2 8.1.2s5 0 8.4-.3c.5-.1 1.5-.1 2.4-1 .7-.7 1-2.4 1-2.4s.2-1.9.2-3.9V11c.1-1.9-.2-3.8-.2-3.8zm-14.2 7.9V8.4l6.5 3.4-6.5 3.3z"/><g fill="#DE4B38"><path d="M161 1.5c.2.1.4.3.6.5.2.2.5.5.7.9.2.3.4.7.6 1.2.1.4.2 1 .2 1.6 0 1.1-.3 2-.7 2.6-.2.3-.5.6-.7.9-.3.3-.6.5-.9.8-.2.2-.3.4-.5.6-.2.2-.3.5-.3.9 0 .3.1.6.3.8.2.2.3.4.5.5l1 .8c.6.5 1.2 1.1 1.7 1.7.5.6.7 1.5.7 2.5 0 1.5-.6 2.8-1.9 3.9-1.3 1.2-3.3 1.8-5.8 1.8-2.1 0-3.7-.5-4.8-1.4-1.1-.8-1.6-1.8-1.6-3 0-.6.2-1.2.5-1.9s.9-1.3 1.8-1.8c1-.6 2-.9 3.1-1.1 1.1-.2 2-.2 2.7-.3l-.6-.9c-.2-.3-.3-.7-.3-1.2 0-.3 0-.5.1-.7.1-.2.1-.4.2-.5-.3 0-.7.1-1 .1-1.6 0-2.8-.5-3.7-1.5-.9-.9-1.3-2-1.3-3.3 0-1.5.6-2.9 1.9-4.1.9-.7 1.8-1.2 2.7-1.4.9-.2 1.8-.3 2.6-.3h6.1L163 1.3h-2zm1.2 17.5c0-.8-.3-1.4-.8-2-.5-.5-1.4-1.2-2.5-2h-.7c-.2 0-.6 0-1.2.1s-1.3.2-1.9.4c-.2.1-.4.1-.7.3-.3.1-.6.3-.9.6-.3.2-.5.6-.7.9-.2.4-.3.9-.3 1.4 0 1.1.5 2 1.5 2.6.9.7 2.2 1.1 3.8 1.1 1.4 0 2.5-.3 3.3-1 .7-.6 1.1-1.4 1.1-2.4zm-4.3-8.9c.8 0 1.5-.3 2-.9.3-.4.4-.8.5-1.2 0-.4.1-.8.1-1 0-1.2-.3-2.4-.9-3.6-.3-.6-.7-1.1-1.1-1.4-.5-.3-1-.5-1.7-.6-.8 0-1.5.4-2.1 1-.5.7-.7 1.4-.7 2.3 0 1.1.3 2.3 1 3.4.3.6.7 1 1.2 1.4.5.4 1.1.6 1.7.6zM174 10h-3.2V6.8h-1.6V10H166v1.6h3.2v3.2h1.6v-3.2h3.2V10z"/></g><path fill="#FFF" d="M79.5 23.3c-2.1 0-3.8-1.7-3.8-3.8 0-.7.2-1.3.5-1.9L82 7.5c.3-.5.4-1 .4-1.5V3c0-.6-.1-1.2-.4-1.7 0-.1 0-.3.1-.4.1-.1.2-.2.3-.2h9.2c.1 0 .3.1.3.2.1.1.1.3 0 .4-.3.5-.4 1.1-.4 1.7v3c0 .5.1 1 .4 1.5l5.8 10.1c.3.6.5 1.2.5 1.9 0 2.1-1.7 3.8-3.8 3.8H79.5z" opacity=".16"/><path fill="#7ACCB2" d="M79.5 21.5c-1.1 0-2-.9-2-2 0-.3.1-.7.3-1l2.8-4.9c.2-.4.6-.6 1.1-.6h10.7c.4 0 .9.2 1.1.6l2.8 4.9c.2.3.3.6.3 1 0 1.1-.9 2-2 2H79.5z"/><path fill="#69AF98" d="M92.3 13.5c.3 0 .5.1.6.4l2.8 4.9c.1.2.2.5.2.7 0 .8-.7 1.5-1.5 1.5h-15c-.8 0-1.5-.7-1.5-1.5 0-.3.1-.5.2-.7l2.8-4.9c.1-.2.4-.4.6-.4h10.8m0-1H81.7c-.6 0-1.2.3-1.5.9l-2.8 4.9c-.2.4-.3.8-.3 1.2 0 1.4 1.1 2.5 2.5 2.5h15c1.4 0 2.5-1.1 2.5-2.5 0-.4-.1-.9-.3-1.2L94 13.4c-.5-.6-1-.9-1.7-.9z"/><path fill="#1A1A1A" d="M98.4 17.3L92.6 7.1c-.2-.3-.3-.7-.3-1.1V3c0-.5.1-.9.3-1.4.2-.3.2-.8 0-1.1-.3-.3-.6-.5-1-.5h-9.2c-.4 0-.8.2-1 .5-.2.3-.2.8 0 1.1.2.4.3.9.3 1.4v3c0 .4-.1.8-.3 1.1l-5.8 10.1c-.4.7-.6 1.5-.6 2.2 0 2.5 2 4.5 4.5 4.5h15c2.5 0 4.5-2 4.5-4.5 0-.7-.2-1.5-.6-2.1zM94.5 23h-15c-1.9 0-3.5-1.6-3.5-3.5 0-.6.2-1.2.5-1.7l5.8-10.1c.3-.5.4-1.1.4-1.6V3c0-.6-.2-1.3-.4-1.8v-.1l.1-.1h9.2s.1 0 .1.1v.1c-.3.6-.4 1.2-.4 1.8v3c0 .6.2 1.1.4 1.6l5.8 10.1c.3.5.5 1.1.5 1.7 0 2-1.6 3.6-3.5 3.6z"/><path fill="#7C7678" d="M73-23v22H51v-22h22m1-1H50V0h24v-24zM123-23v22h-22v-22h22m1-1h-24V0h24v-24zM173-23v22h-22v-22h22m1-1h-24V0h24v-24zM48-23v22H26v-22h22m1-1H25V0h24v-24zM98-23v22H76v-22h22m1-1H75V0h24v-24zM148-23v22h-22v-22h22m1-1h-24V0h24v-24z"/><path fill="#FFF" d="M24 48v17h-1V48c0-6.2-4-10-10.2-10C5.4 38.2 1 43.2 1 51.2V65H0V25h1v20.1c1.8-5 5.9-7.9 11.8-8.1C19.7 37 24 41.1 24 48zM43.6 62.9c-2 1.3-4.1 2.1-6.4 2.1-4.1 0-7.2-2.4-7.2-8V41h-4v-4h4v-7h4v7h9v4h-9v15c0 3.4 1.6 5 4 5 1.4 0 2.8-.6 4.4-1.5l1.2 3.4zM72 53H49.1c.8 5.5 4.4 8 9.9 8 3.5 0 6-1.3 8.2-3.6l2.8 2.8c-2.7 3-6.6 4.8-11.4 4.8C50.4 65 45 59.1 45 50.7S50.4 37 58.6 37c9.1-.1 13.8 6.4 13.4 16zm-4-4c-.3-5.4-3.9-8-9.4-8-5.4 0-8.9 2.7-9.5 8H68zM95 60.4c-2.3 3.1-5.5 4.6-10 4.6-5.8 0-10-4.1-10-9s3.9-7.9 10.5-8H95v-.8c0-4.1-2.8-6.2-7.7-6.2-3.1 0-5.8.6-8.7 2.6l-2-3.5c3.6-2.4 6.7-3.2 11.5-3.2 7 0 10.8 3.7 10.9 9.8V65h-4v-4.6zm0-5.4v-3h-8.9c-4.7 0-7.1.9-7.1 4s2 5.4 6 5.4c4.8 0 8.9-2.5 10-6.4zM148 48v17h-1V48c0-6.2-3.4-10-9.4-10-7.2.2-11.6 6.2-11.6 14.2V65h-1V49c0-6.2-3.5-11-9.5-11-7.2.2-11.5 5.2-11.5 13.2V65h-1V37h1v8c1.7-5 5.8-7.9 11.5-8 5.8 0 9.4 4.2 10.3 9.5 1.6-5.3 5.8-9.4 11.7-9.5 6.8 0 10.5 4.1 10.5 11zM152 65V25h1v40h-1z"/><g><path fill="#7C7678" d="M198-23v22h-22v-22h22m1-1h-24V0h24v-24z"/></g><path fill="#181616" d="M62 0c-6.6 0-12 5.4-12 12s5.4 12 12 12 12-5.4 12-12S68.6 0 62 0zm7 13.8c-.8 3.2-3.7 5.4-7 5.4s-6.1-2.2-7-5.4c-.1-.4.1-.7.5-.8.4-.1.7.1.8.5.7 2.6 3 4.4 5.6 4.4 2.7 0 5-1.8 5.6-4.4.1-.4.5-.6.8-.5.5.1.8.4.7.8z"/></svg>