<svg xmlns="http://www.w3.org/2000/svg" width="175px" height="66px"><style type="text/css">#s2{fill:#2aa9e0}#s3{fill:#3b5999}#s5{fill:#fff}#s6{opacity:0.12;fill:#420000}#s7{fill:url(#g)}.st8{fill:#de4b38}#s9{opacity:0.16;fill:#fff}#s10{fill:#7accb2}#s11{fill:#69af98}#s12{fill:#1a1a1a}.g{fill:#121212}.w{fill:#fff}</style><path class="g" d="M12,0C5.4,0,0,5.4,0,12s5.4,12,12,12s12-5.4,12-12S18.6,0,12,0z M12,23c-2.8,0-5.4-1.1-7.3-2.8c0.2-0.1,0.3-0.3,0.3-0.4c0,0,0-0.1,0-0.1l0,0c0.1,0,0.1,0,0.2,0c0.2,0,0.3,0,0.4-0.1c0.1-0.1,0.2-0.3,0.1-0.6c-0.1-0.5,0-0.5,0.1-0.6l0,0C6,18.1,6,17.9,5.9,17.6c-0.1-0.4-0.5-0.8-1.2-0.9c-0.4,0-0.7-0.4-1-1c0,0,0-0.1,0-0.1c-0.2-0.4-0.3-0.5-0.6-0.5l-0.1,0c0,0-0.1,0-0.3-0.3c-0.2-0.4-0.4-0.6-0.7-0.6c-0.1,0-0.1,0-0.2,0c0-0.1-0.1-0.2-0.2-0.2c-0.1-0.1-0.4-0.3-0.5-1.8l0-0.2l-0.3,0c0,0,0-0.1,0-0.1c0-0.2,0-0.4,0-0.6c0,0.1,0.1,0.1,0.1,0.2C1.2,11.8,1.2,12,1.4,12l0.1,0l0.1-0.1c0.1-0.1,0.1-0.1,0.1-0.9c0-0.3,0.1-0.4,0.2-0.6C1.9,10.2,2,10,2.1,9.8c0-0.4,0.5-1,0.6-1.1l0.1,0c0,0,0,0,0.1,0L2.7,8.9l0.4-0.4c0.1-0.1,0.2-0.2,0.3-0.3l0,0c0,0,0,0,0-0.1l0.1-0.3C3.7,7.9,4,8,4.2,7.8c0.1-0.1,0.1-0.2,0.1-0.4c0-0.1,0-0.2-0.1-0.3C4.2,6.8,4.1,6.6,3.9,6.4c0,0-0.1-0.1-0.1-0.2C3.8,6,3.7,5.7,3.5,5.7c0.2-0.1,0.3-0.2,0.4-0.3c0.2-0.3,0.3-0.6,0.2-0.9l0-0.1C4.3,4.2,4.5,4,4.7,3.8C4.5,4.1,4.5,4.5,4.8,4.7c0.1,0.1,0.3,0.2,0.5,0.2c0.4,0,0.9-0.3,0.9-0.8c0-0.3,0.5-0.5,0.8-0.7c0.1-0.1,0.3-0.2,0.4-0.2L7.6,3c0,0,0.1,0,0.1-0.1C7.6,3,7.6,3,7.6,3.1c0,0.3,0.4,0.3,0.6,0.3c0.4,0,0.9-0.3,0.9-0.6c0-0.1-0.1-0.2-0.1-0.2c-0.1-0.1-0.4-0.1-0.7,0C8,2.7,7.9,2.7,7.8,2.8c0.3-0.2,0.7-0.5,0.8-0.6C8.7,2.2,8.7,2.1,8.7,2c0-0.1-0.1-0.3-0.2-0.4C9.6,1.2,10.8,1,12,1c2.4,0,4.7,0.8,6.5,2.2c-0.8-0.1-1.5-0.3-1.7-0.5c-0.3-0.3-1.8-0.8-2.6-0.8c-0.2,0-0.4,0-0.5,0.1c-0.1,0-0.3,0.1-0.4,0.1c-0.7,0.2-1.8,0.5-1.7,1.5C11.7,3.8,11.9,4,12.1,4c0.1,0,0.3-0.1,0.4-0.1c0.1,0,0.2-0.1,0.2-0.1c0,0,0,0,0,0.1c0.1,0.3,0.2,0.5,0.3,0.5c-0.6,0-1,0.2-1.6,0.5c0,0-0.1,0-0.1,0.1c0-0.2-0.2-0.3-0.3-0.5c-0.2-0.1-0.2-0.3-0.3-0.4c-0.1-0.2-0.2-0.5-0.7-0.3C10,3.7,9.8,3.8,9.8,4c0,0.1,0,0.1,0,0.2c0,0,0,0-0.1,0c-0.1,0-0.2,0-0.2,0.1C9.3,4.4,9,4.9,9.1,5.2c0,0.1,0.1,0.2,0.3,0.2c0.1,0,0.2,0,0.3-0.1c0.1,0,0.1-0.1,0.1-0.1c0,0.1,0,0.1,0,0.2c0.1,0.1,0.2,0.2,0.3,0.2c0,0,0,0,0.1,0C10.1,5.6,10,5.7,10,5.9c0,0.2,0.2,0.3,0.4,0.4c0.1,0,0.1,0.1,0.1,0.1c0,0.1,0,0.1,0,0.1c0,0-0.1,0-0.4,0l-0.2,0c-0.1,0-0.1,0-0.2,0c0,0-0.1,0-0.1,0C9.4,6.4,9.3,6.7,9.2,7c-0.1,0.4,0,0.7,0.2,1c0,0,0.1,0.1,0.1,0.1C9.4,8.3,9.4,8.3,9.3,8.4C9.1,8.7,8.9,9.2,8.2,9.7c-0.4,0.3-0.6,0.8-0.6,1.4c-0.1,1,0.4,2.2,0.8,2.7c0.5,0.6,1.4,0.7,2.7,0.2c0.3-0.1,0.5,0,0.6,0.1c0.1,0.1,0.3,0.2,0.5,0.1c0.1,0,0.2,0,0.2,0.1c0,0.1,0,0.1,0,0.2c-0.2,0.5,0,0.8,0.1,1c0,0,0.1,0.1,0.1,0.1c0,0.1,0.1,0.1,0.2,0.2c0.2,0.2,0.6,0.8,0.4,1c-0.5,0.7-0.5,1.2-0.2,1.6c0.2,0.2,0.3,0.4,0.3,0.7c0.1,0.2,0.1,0.4,0.2,0.6c0.1,0.1,0.1,0.2,0.1,0.3c0.1,0.2,0.1,0.4,0.5,0.4c0.1,0,0.3,0,0.5,0l0.1,0c1-0.1,2.2-1.4,2.2-2c0-0.4,0.2-0.5,0.4-0.6c0.2-0.1,0.4-0.2,0.5-0.4c0.1-0.3,0.1-0.6,0-1c-0.1-0.3-0.1-0.5-0.1-0.7c0.1-0.3,0.5-0.7,0.8-1c0.4-0.4,0.7-0.7,0.9-1.1s0.2-0.6,0-0.7c-0.1-0.1-0.2-0.2-0.3-0.2c-0.1,0-0.3,0-0.4,0.1c-0.1,0-0.2,0-0.3,0.1c-0.3-0.1-1.4-1.8-1.5-2.8c0.3,0.4,1,1.5,1.1,2c0,0.2,0.1,0.7,0.7,0.7c0.3,0,0.6-0.1,1-0.5c0.7-0.6,1-1.1,0.9-1.4c0-0.1,0-0.1-0.1-0.2c0,0,0,0,0,0c0.3,0,0.6,0,0.9,0.5c0.2,0.3,0.3,0.9,0.4,1.3c0.1,0.6,0.2,0.8,0.4,0.8c0.2,0,0.3-0.2,0.4-1.1c0-0.1,0-0.2,0-0.3c0,0.1,0.1,0.3,0.1,0.5l0.2,0.8C22.4,18.6,17.7,23,12,23z M14.3,8.9C14.3,9,14.3,9,14.3,8.9c-0.1,0.1-0.4,0-0.6-0.1c-0.2-0.1-0.4-0.2-0.6-0.2c-0.2-0.1-0.2-0.1-0.2-0.4c0-0.1,0-0.2,0-0.3c0-0.1-0.1-0.2-0.8-0.2c-0.3,0-0.9,0-1.2,0.2c0-0.1,0.1-0.2,0.1-0.2c0.2-0.7,0.4-0.7,0.6-0.7l0.2,0c0.1,0,0.2,0,0.4-0.1c0.1,0,0.1-0.1,0.2-0.1c0.1,0,0.1-0.1,0.1-0.1c0.1,0,0.5,0.4,0.7,0.5c0.5,0.5,0.9,0.5,1,0.2c0-0.1,0-0.3-0.1-0.4C14,7,14.1,7,14.1,7c0.2,0.9,0.5,1.1,0.7,1.1c0.2,0,0.3-0.1,0.4-0.4c0-0.2,0.1-0.3,0.1-0.3c0.1,0.1,0.2,0.3,0.2,0.5c0.1,0.4,0.6,0.4,0.9,0.4l0.4,0c0.1,0,0.1,0,0.2,0c0,0.2,0,0.4-0.1,0.6C16.6,9,16.4,9,16.2,9c-0.2,0-0.4,0-0.5-0.1c-0.1,0-0.1-0.1-0.2-0.1c-0.4-0.2-0.7-0.4-0.9-0.4c-0.1,0-0.2,0.1-0.3,0.1C14.2,8.6,14.2,8.7,14.3,8.9z M14.2,3.5c0.1,0.2,0.4,0.2,0.7,0.3c0,0,0,0,0,0c-0.6,0.7-1,0.8-1.6,0.7c0.1,0,0.2-0.1,0.3-0.2c0.2-0.2,0.3-0.5,0.3-0.9c0-0.1,0.1-0.3,0.1-0.3c0.1-0.1,0.2-0.2,0.3-0.2c0,0,0,0.1-0.1,0.2C14.2,3.2,14.2,3.4,14.2,3.5z"/><path class="g" d="M19.1,16.5H19c-0.1,0-0.2,0.1-0.3,0.2c-0.1,0.1-0.2,0.2-0.3,0.3c-0.3,0.3-0.6,0.5-0.5,0.8c0,0,0,0.2-0.1,0.3c-0.1,0.2-0.1,0.4,0,0.6c0,0.1,0.1,0.1,0.3,0.1l0.1,0c0.5,0,0.7-0.7,0.7-1.1c0-0.1,0-0.2,0.1-0.3l0-0.1C19.3,16.9,19.3,16.7,19.1,16.5L19.1,16.5z M18.2,18.6L18.2,18.6C18.2,18.6,18.2,18.6,18.2,18.6L18.2,18.6z"/><path id="s2" d="M99,4.6c-0.9,0.4-1.8,0.7-2.8,0.8c1-0.6,1.8-1.6,2.2-2.7c-0.9,0.6-2,1-3.1,1.2c-0.9-1-2.2-1.6-3.6-1.6c-2.7,0-4.9,2.2-4.9,4.9c0,0.4,0,0.8,0.1,1.1c-4.1-0.2-7.7-2.2-10.1-5.1C76.3,3.9,76,4.7,76,5.6c0,1.7,0.9,3.2,2.2,4.1c-0.8,0-1.6-0.2-2.2-0.6c0,0,0,0,0,0.1c0,2.4,1.7,4.4,3.9,4.8c-0.4,0.1-0.8,0.2-1.3,0.2c-0.3,0-0.6,0-0.9-0.1c0.6,2,2.4,3.4,4.6,3.4c-1.7,1.3-3.8,2.1-6.1,2.1c-0.4,0-0.8,0-1.2-0.1c2.2,1.4,4.8,2.2,7.5,2.2c9,0,14-7.5,14-14c0-0.2,0-0.4,0-0.6C97.5,6.4,98.3,5.6,99,4.6z"/><path id="s3" d="M122.7,0h-21.4c-0.7,0-1.3,0.6-1.3,1.3v21.4c0,0.7,0.6,1.3,1.3,1.3h11.5v-9.3h-3.1v-3.6h3.1V8.4c0-3.1,1.9-4.8,4.7-4.8c1.3,0,2.5,0.1,2.8,0.1V7l-1.9,0c-1.5,0-1.8,0.7-1.8,1.8v2.3h3.6l-0.5,3.6h-3.1V24h6.1c0.7,0,1.3-0.6,1.3-1.3V1.3C124,0.6,123.4,0,122.7,0z"/><path class="g" d="M37,0c-6.6,0-12,5.4-12,12c0,5.3,3.4,9.8,8.2,11.4c0.6,0.1,0.8-0.3,0.8-0.6c0-0.3,0-1,0-2c-3.3,0.7-4-1.6-4-1.6c-0.5-1.4-1.3-1.8-1.3-1.8c-1.1-0.7,0.1-0.7,0.1-0.7c1.2,0.1,1.8,1.2,1.8,1.2c1.1,1.8,2.8,1.3,3.5,1c0.1-0.8,0.4-1.3,0.8-1.6c-2.7-0.3-5.5-1.3-5.5-5.9c0-1.3,0.5-2.4,1.2-3.2C30.4,7.9,30,6.6,30.7,5c0,0,1-0.3,3.3,1.2c1-0.3,2-0.4,3-0.4c1,0,2,0.1,3,0.4C42.3,4.7,43.3,5,43.3,5c0.7,1.7,0.2,2.9,0.1,3.2c0.8,0.8,1.2,1.9,1.2,3.2c0,4.6-2.8,5.6-5.5,5.9c0.4,0.4,0.8,1.1,0.8,2.2c0,1.6,0,2.9,0,3.3c0,0.3,0.2,0.7,0.8,0.6C45.6,21.8,49,17.3,49,12C49,5.4,43.6,0,37,0z"/><path id="s5" d="M159.5,15.1l6.5-3.4l-6.5-3.4V15.1z"/><path id="s6" d="M159.5,8.4l5.7,3.8l0.8-0.4L159.5,8.4z"/><linearGradient id="g" gradientUnits="userSpaceOnUse" x1="162" y1="4" x2="162" y2="20">	<stop offset="0" style="stop-color:#e52d27"/>	<stop offset="1" style="stop-color:#bf171d"/></linearGradient><path id="s7" d="M173.7,7.2c0,0-0.2-1.7-1-2.4c-0.9-1-1.9-1-2.4-1C167,3.6,162,3.6,162,3.6h0c0,0-5,0-8.4,0.2c-0.5,0.1-1.5,0.1-2.4,1c-0.7,0.7-1,2.4-1,2.4s-0.2,1.9-0.2,3.9v1.8c0,1.9,0.2,3.9,0.2,3.9s0.2,1.7,1,2.4c0.9,1,2.1,0.9,2.6,1c1.9,0.2,8.1,0.2,8.1,0.2s5,0,8.4-0.3c0.5-0.1,1.5-0.1,2.4-1c0.7-0.7,1-2.4,1-2.4s0.2-1.9,0.2-3.9v-1.8C174,9.1,173.7,7.2,173.7,7.2z M159.5,15.1l0-6.7l6.5,3.4L159.5,15.1z"/><path class="st8" d="M136,1.5c0.2,0.1,0.4,0.3,0.6,0.5c0.2,0.2,0.5,0.5,0.7,0.9c0.2,0.3,0.4,0.7,0.6,1.2c0.1,0.4,0.2,1,0.2,1.6c0,1.1-0.3,2-0.7,2.6c-0.2,0.3-0.5,0.6-0.7,0.9c-0.3,0.3-0.6,0.5-0.9,0.8c-0.2,0.2-0.3,0.4-0.5,0.6c-0.2,0.2-0.3,0.5-0.3,0.9c0,0.3,0.1,0.6,0.3,0.8c0.2,0.2,0.3,0.4,0.5,0.5l1,0.8c0.6,0.5,1.2,1.1,1.7,1.7c0.5,0.6,0.7,1.5,0.7,2.5c0,1.5-0.6,2.8-1.9,3.9c-1.3,1.2-3.3,1.8-5.8,1.8c-2.1,0-3.7-0.5-4.8-1.4c-1.1-0.8-1.6-1.8-1.6-3c0-0.6,0.2-1.2,0.5-1.9c0.3-0.7,0.9-1.3,1.8-1.8c1-0.6,2-0.9,3.1-1.1c1.1-0.2,2-0.2,2.7-0.3c-0.2-0.3-0.4-0.6-0.6-0.9c-0.2-0.3-0.3-0.7-0.3-1.2c0-0.3,0-0.5,0.1-0.7c0.1-0.2,0.1-0.4,0.2-0.5c-0.3,0-0.7,0.1-1,0.1c-1.6,0-2.8-0.5-3.7-1.5c-0.9-0.9-1.3-2-1.3-3.3c0-1.5,0.6-2.9,1.9-4.1c0.9-0.7,1.8-1.2,2.7-1.4c0.9-0.2,1.8-0.3,2.6-0.3h6.1l-1.9,1.1H136z M137.2,19c0-0.8-0.3-1.4-0.8-2c-0.5-0.5-1.4-1.2-2.5-2c-0.2,0-0.4,0-0.7,0c-0.2,0-0.6,0-1.2,0.1c-0.6,0.1-1.3,0.2-1.9,0.4c-0.2,0.1-0.4,0.1-0.7,0.3c-0.3,0.1-0.6,0.3-0.9,0.6c-0.3,0.2-0.5,0.6-0.7,0.9c-0.2,0.4-0.3,0.9-0.3,1.4c0,1.1,0.5,2,1.5,2.6c0.9,0.7,2.2,1.1,3.8,1.1c1.4,0,2.5-0.3,3.3-1C136.8,20.8,137.2,20,137.2,19z M132.9,10.1c0.8,0,1.5-0.3,2-0.9c0.3-0.4,0.4-0.8,0.5-1.2c0-0.4,0.1-0.8,0.1-1c0-1.2-0.3-2.4-0.9-3.6c-0.3-0.6-0.7-1.1-1.1-1.4c-0.5-0.3-1-0.5-1.7-0.6c-0.8,0-1.5,0.4-2.1,1c-0.5,0.7-0.7,1.4-0.7,2.3c0,1.1,0.3,2.3,1,3.4c0.3,0.6,0.7,1,1.2,1.4C131.7,9.9,132.3,10.1,132.9,10.1z"/><path class="st8" d="M149,10h-3.2V6.8h-1.6V10H141v1.6h3.2v3.2h1.6v-3.2h3.2V10z"/><path id="s9" d="M54.5,23.3c-2.1,0-3.8-1.7-3.8-3.8c0-0.7,0.2-1.3,0.5-1.9l5.8-10.1c0.3-0.5,0.4-1,0.4-1.5V3c0-0.6-0.1-1.2-0.4-1.7C57,1.2,57,1,57.1,0.9c0.1-0.1,0.2-0.2,0.3-0.2h9.2c0.1,0,0.3,0.1,0.3,0.2C67,1,67,1.2,66.9,1.3c-0.3,0.5-0.4,1.1-0.4,1.7v3c0,0.5,0.1,1,0.4,1.5l5.8,10.1c0.3,0.6,0.5,1.2,0.5,1.9c0,2.1-1.7,3.8-3.8,3.8H54.5z"/><path id="s10" d="M54.5,21.5c-1.1,0-2-0.9-2-2c0-0.3,0.1-0.7,0.3-1l2.8-4.9c0.2-0.4,0.6-0.6,1.1-0.6h10.7c0.4,0,0.9,0.2,1.1,0.6l2.8,4.9c0.2,0.3,0.3,0.6,0.3,1c0,1.1-0.9,2-2,2H54.5z"/><path id="s11" d="M67.3,13.5c0.3,0,0.5,0.1,0.6,0.4l2.8,4.9c0.1,0.2,0.2,0.5,0.2,0.7c0,0.8-0.7,1.5-1.5,1.5h-15c-0.8,0-1.5-0.7-1.5-1.5c0-0.3,0.1-0.5,0.2-0.7l2.8-4.9c0.1-0.2,0.4-0.4,0.6-0.4H67.3 M67.3,12.5H56.7c-0.6,0-1.2,0.3-1.5,0.9l-2.8,4.9c-0.2,0.4-0.3,0.8-0.3,1.2c0,1.4,1.1,2.5,2.5,2.5h15c1.4,0,2.5-1.1,2.5-2.5c0-0.4-0.1-0.9-0.3-1.2l-2.8-4.9C68.5,12.8,68,12.5,67.3,12.5L67.3,12.5z"/><path id="s12" d="M73.4,17.3L67.6,7.1c-0.2-0.3-0.3-0.7-0.3-1.1V3c0-0.5,0.1-0.9,0.3-1.4c0.2-0.3,0.2-0.8,0-1.1C67.3,0.2,67,0,66.6,0h-9.2c-0.4,0-0.8,0.2-1,0.5c-0.2,0.3-0.2,0.8,0,1.1c0.2,0.4,0.3,0.9,0.3,1.4v3c0,0.4-0.1,0.8-0.3,1.1l-5.8,10.1c-0.4,0.7-0.6,1.5-0.6,2.2c0,2.5,2,4.5,4.5,4.5h15c2.5,0,4.5-2,4.5-4.5C74,18.7,73.8,17.9,73.4,17.3z M69.5,23h-15c-1.9,0-3.5-1.6-3.5-3.5c0-0.6,0.2-1.2,0.5-1.7l5.8-10.1c0.3-0.5,0.4-1.1,0.4-1.6V3c0-0.6-0.2-1.3-0.4-1.8c0,0,0-0.1,0-0.1c0,0,0.1-0.1,0.1-0.1h9.2c0,0,0.1,0,0.1,0.1c0,0,0,0.1,0,0.1c-0.3,0.6-0.4,1.2-0.4,1.8v3c0,0.6,0.2,1.1,0.4,1.6l5.8,10.1c0.3,0.5,0.5,1.1,0.5,1.7C73,21.4,71.4,23,69.5,23z"/><path class="w" d="M24,48v17h-1V48c0-6.2-4-10-10.2-10C5.4,38.2,1,43.2,1,51.2V65H0V25h1v20.1c1.8-5,5.9-7.9,11.8-8.1C19.7,37,24,41.1,24,48z"/><path class="w" d="M43.6,62.9c-2,1.3-4.1,2.1-6.4,2.1c-4.1,0-7.2-2.4-7.2-8V41h-4v-4h4v-7h4v7h9v4h-9v15c0,3.4,1.6,5,4,5c1.4,0,2.8-0.6,4.4-1.5L43.6,62.9z"/><path class="w" d="M72,53H49.1c0.8,5.5,4.4,8,9.9,8c3.5,0,6-1.3,8.2-3.6l2.8,2.8c-2.7,3-6.6,4.8-11.4,4.8C50.4,65,45,59.1,45,50.7S50.4,37,58.6,37C67.7,36.9,72.4,43.4,72,53z M68,49c-0.3-5.4-3.9-8-9.4-8c-5.4,0-8.9,2.7-9.5,8H68z"/><path class="w" d="M95,60.4c-2.3,3.1-5.5,4.6-10,4.6c-5.8,0-10-4.1-10-9c0-4.9,3.9-7.9,10.5-8H95v-0.8c0-4.1-2.8-6.2-7.7-6.2c-3.1,0-5.8,0.6-8.7,2.6l-2-3.5c3.6-2.4,6.7-3.2,11.5-3.2c7,0,10.8,3.7,10.9,9.8L99,65h-4V60.4z M95,55v-3h-8.9c-4.7,0-7.1,0.9-7.1,4s2,5.4,6,5.4C89.8,61.4,93.9,58.9,95,55z"/><path class="w" d="M148,48v17h-1V48c0-6.2-3.4-10-9.4-10c-7.2,0.2-11.6,6.2-11.6,14.2V65h-1V49c0-6.2-3.5-11-9.5-11c-7.2,0.2-11.5,5.2-11.5,13.2V65h-1V37h1v8c1.7-5,5.8-7.9,11.5-8c5.8,0,9.4,4.2,10.3,9.5c1.6-5.3,5.8-9.4,11.7-9.5C144.3,37,148,41.1,148,48z"/><path class="w" d="M152,65V25h1v40H152z"/></svg>